<svg width="24" height="24" viewBox="0 0 24 24" fill="none" xmlns="http://www.w3.org/2000/svg">
<path d="M24 7.5V9.5C24 10.329 23.329 11 22.5 11C21.671 11 21 10.329 21 9.5V9H3V18.5C3 19.878 4.122 21 5.5 21H9.5C10.329 21 11 21.671 11 22.5C11 23.329 10.329 24 9.5 24H5.5C2.467 24 0 21.533 0 18.5V7.5C0 4.467 2.467 2 5.5 2H6V1.5C6 0.671 6.671 0 7.5 0C8.329 0 9 0.671 9 1.5V2H15V1.5C15 0.671 15.671 0 16.5 0C17.329 0 18 0.671 18 1.5V2H18.5C21.533 2 24 4.467 24 7.5ZM23.951 19.501C24.078 20.11 23.926 20.735 23.533 21.22C23.131 21.716 22.53 22 21.885 22H20.726C20.6 23.123 19.658 24 18.501 24C17.344 24 16.402 23.123 16.276 22H15.111C14.467 22 13.866 21.716 13.464 21.221C13.07 20.738 12.918 20.113 13.044 19.506L13.891 15.699C14.4 13.548 16.336 12 18.5 12C20.535 12 22.459 13.417 23.075 15.369C23.09 15.416 23.951 19.502 23.951 19.502V19.501ZM20.78 19L20.194 16.214C19.947 15.528 19.215 15 18.499 15C17.723 15 16.999 15.589 16.814 16.37L16.229 19H20.78Z" fill="url(#paint0_linear_1108_5)"/>
<defs>
<linearGradient id="paint0_linear_1108_5" x1="12" y1="0" x2="12" y2="24" gradientUnits="userSpaceOnUse">
<stop stop-color="#21209C"/>
<stop offset="1" stop-color="#8A18A0"/>
</linearGradient>
</defs>
</svg>
